<svg 
 xmlns="http://www.w3.org/2000/svg"
 xmlns:xlink="http://www.w3.org/1999/xlink"
 width="58.639in" height="32.458in">
<path fill-rule="evenodd"  fill="rgb(236, 236, 236)"
 d="M3168.534,1842.785 C3168.534,1842.785 3168.534,1429.272 3168.534,1429.272 C3168.534,1429.272 3845.192,1021.129 3845.192,1021.129 C3845.192,1021.129 3845.192,1010.388 3845.192,1010.388 C3845.192,1010.388 3168.534,602.246 3168.534,602.246 C3168.534,602.246 3168.534,188.733 3168.534,188.733 C3168.534,188.733 4221.113,860.020 4221.113,860.020 C4221.113,860.020 4221.113,1171.497 4221.113,1171.497 C4221.113,1171.497 3168.534,1842.785 3168.534,1842.785 ZM1476.915,2336.852 C1476.915,2336.852 2363.014,0.772 2363.014,0.772 C2363.014,0.772 2744.305,0.772 2744.305,0.772 C2744.305,0.772 1858.206,2336.852 1858.206,2336.852 C1858.206,2336.852 1476.915,2336.852 1476.915,2336.852 ZM0.107,860.020 C0.107,860.020 1052.686,188.733 1052.686,188.733 C1052.686,188.733 1052.686,602.246 1052.686,602.246 C1052.686,602.246 376.028,1010.388 376.028,1010.388 C376.028,1010.388 376.028,1021.129 376.028,1021.129 C376.028,1021.129 1052.686,1429.272 1052.686,1429.272 C1052.686,1429.272 1052.686,1842.785 1052.686,1842.785 C1052.686,1842.785 0.107,1171.497 0.107,1171.497 C0.107,1171.497 0.107,860.020 0.107,860.020 Z"/>
</svg>